<?xml version="1.0" encoding="utf-8"?>
<!-- Generator: Adobe Illustrator 27.5.0, SVG Export Plug-In . SVG Version: 6.00 Build 0)  -->
<svg version="1.1" xmlns="http://www.w3.org/2000/svg" xmlns:xlink="http://www.w3.org/1999/xlink" x="0px" y="0px"
	 viewBox="0 0 3710 3710" style="enable-background:new 0 0 3710 3710;" xml:space="preserve">
<g id="Background">
	<g>
		<g>
			<rect style="fill:#FFFFFF;" width="3710" height="3710"/>
		</g>
	</g>
</g>
<g id="Illustration">
	<g>
		<linearGradient id="SVGID_1_" gradientUnits="userSpaceOnUse" x1="3573.2671" y1="4058.6038" x2="1091.178" y2="976.005">
			<stop  offset="0" style="stop-color:#B37CFF"/>
			<stop  offset="1" style="stop-color:#F895E7"/>
		</linearGradient>
		<path style="opacity:0.3;fill:url(#SVGID_1_);" d="M2890.429,2842.938c-57.013,60.02-110.957,98.727-153.578,129.308
			c-500.998,359.472-1093.812,254.688-1219.802,229.098c-186.047-37.787-545.673-110.829-805.675-416.587
			c-393.362-462.586-332.11-1191.377-26.992-1672.462c55.811-87.999,350.621-576.412,949.819-654.738
			c362.629-47.402,785.337,48.202,1091.451,304.665C3368.213,1300.561,3322.47,2388.099,2890.429,2842.938z"/>
		<g>
			
				<linearGradient id="SVGID_00000100377459712733501200000007058799778366888369_" gradientUnits="userSpaceOnUse" x1="2457.9077" y1="1976.283" x2="3274.21" y2="1976.283">
				<stop  offset="0" style="stop-color:#B37CFF"/>
				<stop  offset="1" style="stop-color:#F895E7"/>
			</linearGradient>
			<path style="fill:url(#SVGID_00000100377459712733501200000007058799778366888369_);" d="M3242.042,1231.406
				c-0.227-10.442-10.134-18.845-22.277-18.845h-736.482c-12.305,0-25.376,8.662-25.376,19.246v1478.462
				c0,7.9,5.203,15.476,11.707,21.056c6.504,5.578,16.095,8.701,25.28,8.68l744.549-1.748c9.265-0.021,18.324-3.241,24.805-8.937
				c6.481-5.696,10.129-13.41,9.955-21.378L3242.042,1231.406z"/>
			<g>
				<polygon style="fill:#FFFFFF;" points="2819.09,1317.337 2578.17,1316.619 2578.26,1290.691 2818.91,1291.345 				"/>
				<polygon style="fill:#FFFFFF;" points="2819.75,1412.841 2577.839,1411.891 2577.93,1385.749 2819.569,1386.634 				"/>
				<polygon style="fill:#FFFFFF;" points="2820.417,1509.133 2577.507,1507.948 2577.598,1481.59 2820.233,1482.711 				"/>
				<polygon style="fill:#FFFFFF;" points="2821.088,1606.228 2577.171,1604.802 2577.263,1578.225 2820.904,1579.585 				"/>
				<polygon style="fill:#FFFFFF;" points="2821.765,1704.129 2576.833,1702.459 2576.926,1675.662 2821.58,1677.264 				"/>
				<polygon style="fill:#FFFFFF;" points="2823.136,1902.399 2576.147,1900.229 2576.241,1872.981 2822.948,1875.081 				"/>
				<polygon style="fill:#FFFFFF;" points="2825.237,2206.135 2575.098,2203.183 2575.195,2175.237 2825.043,2178.115 				"/>
				<polygon style="fill:#FFFFFF;" points="2822.448,1802.849 2576.491,1800.932 2576.585,1773.91 2822.261,1775.76 				"/>
				<polygon style="fill:#FFFFFF;" points="2823.831,2002.791 2575.8,2000.365 2575.896,1972.887 2823.641,1975.243 				"/>
				<polygon style="fill:#FFFFFF;" points="2824.531,2104.032 2575.45,2101.345 2575.546,2073.635 2824.339,2076.25 				"/>
				<polygon style="fill:#FFFFFF;" points="2825.949,2309.11 2574.741,2305.889 2574.84,2277.704 2825.753,2280.85 				"/>
				<polygon style="fill:#FFFFFF;" points="2826.668,2412.969 2574.383,2409.474 2574.481,2381.047 2826.47,2384.467 				"/>
				<polygon style="fill:#FFFFFF;" points="2827.392,2517.725 2574.021,2513.951 2574.12,2485.28 2827.193,2488.977 				"/>
				<polygon style="fill:#FFFFFF;" points="2828.123,2623.386 2573.656,2619.33 2573.756,2590.41 2827.922,2594.389 				"/>
				<polygon style="fill:#FFFFFF;" points="3134.955,1318.277 2892.523,1317.555 2892.261,1291.545 3134.42,1292.203 				"/>
				<polygon style="fill:#FFFFFF;" points="3136.921,1414.085 2893.487,1413.13 2893.222,1386.905 3136.382,1387.796 				"/>
				<polygon style="fill:#FFFFFF;" points="3138.904,1510.688 2894.458,1509.495 2894.191,1483.052 3138.36,1484.18 				"/>
				<polygon style="fill:#FFFFFF;" points="3140.903,1608.097 2895.437,1606.662 2895.168,1580 3140.354,1581.368 				"/>
				<polygon style="fill:#FFFFFF;" points="3142.919,1706.318 2896.425,1704.638 2896.154,1677.753 3142.366,1679.365 				"/>
				<polygon style="fill:#FFFFFF;" points="3147.003,1905.244 2898.425,1903.061 2898.149,1875.722 3146.44,1877.835 				"/>
				<polygon style="fill:#FFFFFF;" points="3153.258,2210.004 2901.489,2207.034 2901.206,2178.993 3152.681,2181.89 				"/>
				<polygon style="fill:#FFFFFF;" points="3144.953,1805.363 2897.42,1803.434 2897.147,1776.323 3144.395,1778.184 				"/>
				<polygon style="fill:#FFFFFF;" points="3149.07,2005.972 2899.438,2003.53 2899.16,1975.961 3148.503,1978.331 				"/>
				<polygon style="fill:#FFFFFF;" points="3151.155,2107.555 2900.459,2104.851 2900.178,2077.047 3150.583,2079.678 				"/>
				<polygon style="fill:#FFFFFF;" points="3155.379,2313.333 2902.528,2310.092 2902.243,2281.81 3154.796,2284.977 				"/>
				<polygon style="fill:#FFFFFF;" points="3157.518,2417.552 2903.576,2414.034 2903.288,2385.509 3156.931,2388.951 				"/>
				<polygon style="fill:#FFFFFF;" points="3159.676,2522.673 2904.632,2518.875 2904.342,2490.104 3159.083,2493.825 				"/>
				<polygon style="fill:#FFFFFF;" points="3161.852,2628.706 2905.698,2624.623 2905.405,2595.602 3161.254,2599.606 				"/>
			</g>
		</g>
		<g>
			
				<linearGradient id="SVGID_00000046341249423316980700000015013827756108885934_" gradientUnits="userSpaceOnUse" x1="1161.4685" y1="3689.9175" x2="1050.2214" y2="2359.7935">
				<stop  offset="0" style="stop-color:#A737D5"/>
				<stop  offset="1" style="stop-color:#EF497A"/>
			</linearGradient>
			<path style="fill:url(#SVGID_00000046341249423316980700000015013827756108885934_);" d="M1691.109,2074.411
				c-0.361-6.982-16.113-12.6-35.42-12.6H484.658c-19.565,0-40.348,5.791-40.348,12.868v988.5c0,5.282,8.273,10.348,18.614,14.078
				c10.342,3.73,25.592,5.818,40.196,5.803l1183.858-1.168c14.731-0.015,29.136-2.167,39.44-5.975
				c10.305-3.808,16.106-8.966,15.829-14.294L1691.109,2074.411z"/>
			<g style="opacity:0.41;">
				<polygon style="fill:#FFFFFF;" points="1018.602,2131.864 635.53,2131.385 635.673,2114.048 1018.316,2114.486 				"/>
				<polygon style="fill:#FFFFFF;" points="1019.652,2195.718 635.005,2195.083 635.15,2177.604 1019.364,2178.196 				"/>
				<polygon style="fill:#FFFFFF;" points="1020.711,2260.099 634.476,2259.306 634.621,2241.684 1020.42,2242.433 				"/>
				<polygon style="fill:#FFFFFF;" points="1021.778,2325.016 633.942,2324.063 634.089,2306.294 1021.486,2307.203 				"/>
				<polygon style="fill:#FFFFFF;" points="1022.855,2390.473 633.404,2389.357 633.552,2371.44 1022.56,2372.511 				"/>
				<polygon style="fill:#FFFFFF;" points="1025.035,2523.036 632.314,2521.586 632.465,2503.368 1024.735,2504.772 				"/>
				<polygon style="fill:#FFFFFF;" points="1028.375,2726.114 630.646,2724.141 630.8,2705.456 1028.068,2707.381 				"/>
				<polygon style="fill:#FFFFFF;" points="1023.941,2456.477 632.862,2455.196 633.011,2437.129 1023.643,2438.365 				"/>
				<polygon style="fill:#FFFFFF;" points="1026.139,2590.159 631.763,2588.537 631.915,2570.165 1025.837,2571.74 				"/>
				<polygon style="fill:#FFFFFF;" points="1027.253,2657.849 631.207,2656.052 631.359,2637.525 1026.947,2639.273 				"/>
				<polygon style="fill:#FFFFFF;" points="1029.508,2794.964 630.08,2792.81 630.235,2773.965 1029.197,2776.069 				"/>
				<polygon style="fill:#FFFFFF;" points="1030.65,2864.404 629.509,2862.067 629.666,2843.061 1030.336,2845.347 				"/>
				<polygon style="fill:#FFFFFF;" points="1031.802,2934.444 628.933,2931.921 629.091,2912.751 1031.486,2915.222 				"/>
				<polygon style="fill:#FFFFFF;" points="1032.964,3005.088 628.353,3002.376 628.512,2983.041 1032.645,2985.701 				"/>
				<polygon style="fill:#FFFFFF;" points="1520.837,2132.493 1135.363,2132.01 1134.945,2114.619 1519.986,2115.06 				"/>
				<polygon style="fill:#FFFFFF;" points="1523.963,2196.55 1136.894,2195.911 1136.474,2178.377 1523.106,2178.973 				"/>
				<polygon style="fill:#FFFFFF;" points="1527.117,2261.139 1138.439,2260.341 1138.015,2242.661 1526.251,2243.415 				"/>
				<polygon style="fill:#FFFFFF;" points="1530.295,2326.266 1139.996,2325.307 1139.568,2307.48 1529.423,2308.396 				"/>
				<polygon style="fill:#FFFFFF;" points="1533.501,2391.936 1141.566,2390.813 1141.136,2372.838 1532.621,2373.917 				"/>
				<polygon style="fill:#FFFFFF;" points="1539.994,2524.939 1144.747,2523.479 1144.308,2505.2 1539.099,2506.614 				"/>
				<polygon style="fill:#FFFFFF;" points="1549.939,2728.702 1149.618,2726.716 1149.169,2707.967 1549.021,2709.905 				"/>
				<polygon style="fill:#FFFFFF;" points="1536.734,2458.159 1143.15,2456.868 1142.716,2438.742 1535.847,2439.987 				"/>
				<polygon style="fill:#FFFFFF;" points="1543.281,2592.286 1146.357,2590.653 1145.915,2572.22 1542.379,2573.805 				"/>
				<polygon style="fill:#FFFFFF;" points="1546.596,2660.204 1147.98,2658.396 1147.535,2639.806 1545.686,2641.566 				"/>
				<polygon style="fill:#FFFFFF;" points="1553.312,2797.788 1151.271,2795.62 1150.817,2776.711 1552.386,2778.829 				"/>
				<polygon style="fill:#FFFFFF;" points="1556.713,2867.468 1152.937,2865.116 1152.478,2846.044 1555.779,2848.345 				"/>
				<polygon style="fill:#FFFFFF;" points="1560.144,2937.752 1154.616,2935.213 1154.155,2915.976 1559.202,2918.464 				"/>
				<polygon style="fill:#FFFFFF;" points="1563.604,3008.646 1156.312,3005.915 1155.846,2986.512 1562.654,2989.189 				"/>
			</g>
		</g>
		<g>
			
				<linearGradient id="SVGID_00000112596463845168585640000013996344935602602138_" gradientUnits="userSpaceOnUse" x1="2117.2605" y1="3369.7747" x2="1795.8842" y2="227.4321">
				<stop  offset="0" style="stop-color:#2B3582"/>
				<stop  offset="1" style="stop-color:#150E42"/>
			</linearGradient>
			<path style="fill:url(#SVGID_00000112596463845168585640000013996344935602602138_);" d="M2782.892,579.64
				c8.955,422.557,37.995,1880.112,24.131,2396.625c-1.469,54.72-38.966,98.639-85.74,100.431
				c-231.338,8.855-1079.416,31.303-1457.808,12.731c-78.815-3.868-141.49-78.551-143.125-170.813
				c-7.863-443.528-25.211-1691,16.022-2262.468c4.942-68.47,50.88-122.995,109.325-129.836
				c251.939-29.484,1103.663-101.556,1430.573-76.739C2735.228,454.048,2781.428,510.545,2782.892,579.64z"/>
			
				<linearGradient id="SVGID_00000121978904699007494560000012371615011285400204_" gradientUnits="userSpaceOnUse" x1="-5182.1182" y1="1094.4231" x2="-8685.04" y2="5575.5239" gradientTransform="matrix(-1 0 0 1 -3660.8049 0)">
				<stop  offset="0" style="stop-color:#53D8FF"/>
				<stop  offset="1" style="stop-color:#3840F7"/>
			</linearGradient>
			<path style="fill:url(#SVGID_00000121978904699007494560000012371615011285400204_);" d="M2679.668,709.283
				c12.452,341.066,51.729,1475.711,39.263,1895.279c-1.821,61.327-43.138,110.912-95.501,114.497
				c-215.597,14.76-951.16,47.305-1267.387,17.682c-56.942-5.335-101.625-59.208-104.699-125.94
				c-16.023-347.957-62.036-1404.471-50.087-1819.337c1.908-66.183,45.729-120.232,102.109-126.154
				c233.241-24.499,1014.861-82.789,1283.581-65.639C2637.391,602.892,2677.513,650.237,2679.668,709.283z"/>
			<path style="opacity:0.5;fill:#FFFFFF;" d="M2211.159,523.407L2211.159,523.407c0,12.967-8.636,23.66-19.705,24.337
				c-54.641,3.348-208.565,12.819-277.357,17.488c-13.563,0.921-24.209-13.341-21.637-28.948l0.44-2.663
				c1.756-10.649,9.305-18.664,18.536-19.654c46.5-4.985,186.809-18.806,279.773-14.924
				C2202.376,499.511,2211.159,510.336,2211.159,523.407z"/>
			<path style="opacity:0.46;fill:#FFFFFF;" d="M2546.958,2672.349l-1119.582,31.61c-58.776,0-107.355-65.887-110.773-150.238
				l-70.149-1731.158c-3.711-91.59,9.947-112.401,73.766-112.401l1220.732-56.39c61.282,0,110.961,71.418,110.961,159.515v1731.158
				C2651.913,2632.541,2608.24,2672.349,2546.958,2672.349z"/>
		</g>
		<g>
			<g>
				
					<linearGradient id="SVGID_00000123403894853515521510000005665566219433369517_" gradientUnits="userSpaceOnUse" x1="1585.7207" y1="1032.5743" x2="2997.8691" y2="872.7084" gradientTransform="matrix(0.9997 -0.0258 0.0258 0.9997 52.0062 -8.1591)">
					<stop  offset="0" style="stop-color:#A737D5"/>
					<stop  offset="1" style="stop-color:#EF497A"/>
				</linearGradient>
				<path style="fill:url(#SVGID_00000123403894853515521510000005665566219433369517_);" d="M2312.808,839.753
					c-1.632-63.146-54.144-113.013-117.29-111.381l-428.383,11.07c-63.146,1.632-113.013,54.144-111.381,117.29l4.649,179.917
					c1.632,63.146,54.144,113.013,117.29,111.381l428.383-11.07c63.145-1.632,113.012-54.144,111.381-117.29L2312.808,839.753z"/>
				
					<linearGradient id="SVGID_00000084489373551313075070000008274234578706262171_" gradientUnits="userSpaceOnUse" x1="1612.5483" y1="1272.8615" x2="3024.8967" y2="1112.9729" gradientTransform="matrix(0.9997 -0.0258 0.0258 0.9997 52.0062 -8.1591)">
					<stop  offset="0" style="stop-color:#A737D5"/>
					<stop  offset="1" style="stop-color:#EF497A"/>
				</linearGradient>
				<path style="fill:url(#SVGID_00000084489373551313075070000008274234578706262171_);" d="M1887.181,1106.524l91.471,154.616
					c3.681,6.249,10.478,9.619,17.724,9.367c7.247-0.257,13.791-3.907,17.025-10.399l79.508-158.9L1887.181,1106.524z"/>
			</g>
			<g>
				<path style="fill:#FFFFFF;" d="M2163.592,1006.86l-83.86,2.167l-0.409-15.815l32.254-0.833l-2.683-103.836l-32.254,0.833
					l-0.366-14.15c4.37-0.113,9.042-0.598,14.018-1.455c4.975-0.857,8.728-2.013,11.259-3.466c3.146-1.817,5.603-4.084,7.373-6.802
					c1.769-2.718,2.734-6.334,2.895-10.85l16.126-0.417l3.608,139.627l31.63-0.817L2163.592,1006.86z"/>
			</g>
			<path style="fill:#FFFFFF;" d="M1893.631,897.012c2.16,4.481,8.672,3.985,10.035-0.799c6.187-21.724,23.061-55.387,66.996-40.478
				c85.985,29.179-15.22,143.319-56.337,185.228c-9.016,9.189-23.475,10.054-33.52,2.001
				c-43.287-34.699-146.391-127.923-81.308-182.806C1847.767,819.453,1880.369,869.507,1893.631,897.012z"/>
		</g>
		<g>
			<g>
				
					<linearGradient id="SVGID_00000128466729848172932770000007289288277723733890_" gradientUnits="userSpaceOnUse" x1="2078.3711" y1="1730.1449" x2="1629.4121" y2="2525.1172">
					<stop  offset="0" style="stop-color:#53D8FF"/>
					<stop  offset="1" style="stop-color:#3840F7"/>
				</linearGradient>
				
					<circle style="fill:url(#SVGID_00000128466729848172932770000007289288277723733890_);" cx="2010.537" cy="1850.259" r="456.413"/>
				<circle style="opacity:0.6;fill:#FFFFFF;" cx="2013.054" cy="1855.939" r="403.305"/>
				<g>
					
						<linearGradient id="SVGID_00000003081843518722866860000006524767045174812824_" gradientUnits="userSpaceOnUse" x1="1940.9376" y1="437.56" x2="1767.057" y2="1856.0577">
						<stop  offset="0" style="stop-color:#FDF53F"/>
						<stop  offset="1" style="stop-color:#D93C65"/>
					</linearGradient>
					<path style="fill:url(#SVGID_00000003081843518722866860000006524767045174812824_);" d="M1837.693,1974.929h-140.134v-36.285
						l46.473-65.777c12.749-18.111,21.507-31.548,26.275-40.306c4.764-8.758,8.28-17.159,10.546-25.203
						c2.261-8.043,3.396-16.355,3.396-24.935c0-10.01-2.234-17.517-6.703-22.521c-4.469-5.005-10.278-7.507-17.427-7.507
						c-6.318,0-12.217,1.671-17.696,5.005c-5.483,3.338-12.155,9.357-20.019,18.053l-27.169-28.599
						c12.512-14.179,24.13-23.889,34.855-29.135c10.724-5.242,22.343-7.865,34.855-7.865c21.092,0,37.563,6.198,49.422,18.589
						c11.855,12.396,17.785,29.613,17.785,51.656c0,10.01-1.073,19.483-3.217,28.42c-2.145,8.937-5.394,17.906-9.741,26.901
						c-4.352,9-9.804,18.352-16.355,28.063c-6.555,9.715-23.478,31.968-50.763,66.76v1.43h85.618V1974.929z"/>
					
						<linearGradient id="SVGID_00000082364671547295051040000015914211409261398684_" gradientUnits="userSpaceOnUse" x1="2115.8059" y1="458.9977" x2="1941.9252" y2="1877.4965">
						<stop  offset="0" style="stop-color:#FDF53F"/>
						<stop  offset="1" style="stop-color:#D93C65"/>
					</linearGradient>
					<path style="fill:url(#SVGID_00000082364671547295051040000015914211409261398684_);" d="M2017.865,1920.055h-26.454v54.874
						h-45.758v-54.874h-85.26v-39.502l79.004-166.945h52.014v166.23h26.454V1920.055z M1945.653,1879.838v-55.053l0.894-24.309
						l1.251-23.236h-1.43c-4.174,12.99-8.7,24.729-13.584,35.212l-31.459,67.386H1945.653z"/>
					
						<linearGradient id="SVGID_00000008839657993662256310000016904788218566525841_" gradientUnits="userSpaceOnUse" x1="2265.2361" y1="477.3152" x2="2091.3552" y2="1895.8132">
						<stop  offset="0" style="stop-color:#FDF53F"/>
						<stop  offset="1" style="stop-color:#D93C65"/>
					</linearGradient>
					<path style="fill:url(#SVGID_00000008839657993662256310000016904788218566525841_);" d="M2169.26,1713.608l-97.415,261.321
						h-45.758l97.414-261.321H2169.26z"/>
					
						<linearGradient id="SVGID_00000139289531040148384420000009292318955615798975_" gradientUnits="userSpaceOnUse" x1="2407.2429" y1="494.7209" x2="2233.3623" y2="1913.2185">
						<stop  offset="0" style="stop-color:#FDF53F"/>
						<stop  offset="1" style="stop-color:#D93C65"/>
					</linearGradient>
					<path style="fill:url(#SVGID_00000139289531040148384420000009292318955615798975_);" d="M2203.578,1974.929l73.284-217.887
						h-91.159v-43.077h140.134v32.889l-72.033,228.075H2203.578z"/>
				</g>
			</g>
			<g>
				<g>
					<path style="fill:#FFFFFF;" d="M1530.868,1728.605c-2.275,0-4.587-0.329-6.877-1.023c-12.518-3.794-19.59-17.016-15.797-29.536
						c62.065-204.824,239.577-351.717,452.233-374.224c13.003-1.387,24.668,8.054,26.045,21.06
						c1.375,13.009-8.051,24.668-21.06,26.045c-193.68,20.498-355.354,154.291-411.885,340.858
						C1550.427,1722.013,1541.032,1728.605,1530.868,1728.605z"/>
					<g>
						<polygon style="fill:#FFFFFF;" points="1873.785,1433.905 1948.988,1348.765 1863.803,1273.61 1931.857,1269.373 
							2016.994,1344.53 1941.838,1429.668 						"/>
					</g>
				</g>
				<g>
					<path style="fill:#FFFFFF;" d="M1885.333,2366.753c-2.028,0-4.089-0.262-6.139-0.809
						c-210.79-56.429-367.836-240.068-390.793-456.961c-1.377-13.008,8.052-24.668,21.06-26.045
						c13.014-1.38,24.668,8.054,26.045,21.06c20.909,197.54,163.947,364.793,355.935,416.187
						c12.636,3.385,20.137,16.368,16.755,29.004C1905.363,2359.771,1895.79,2366.753,1885.333,2366.753z"/>
					<g>
						<polygon style="fill:#FFFFFF;" points="1598.482,1995.627 1513.342,1920.422 1438.187,2005.605 1433.951,1937.551 
							1509.109,1852.415 1594.246,1927.573 						"/>
					</g>
				</g>
				<g>
					<path style="fill:#FFFFFF;" d="M2071.039,2381.142c-11.963,0-22.237-9.033-23.525-21.194
						c-1.377-13.009,8.051-24.668,21.06-26.045c210.453-22.273,380.356-176.542,422.784-383.88
						c2.621-12.813,15.136-21.091,27.952-18.454c12.813,2.621,21.075,15.136,18.454,27.952
						c-22.602,110.449-78.815,209.224-162.561,285.647c-84.271,76.9-188.578,123.872-301.644,135.84
						C2072.714,2381.098,2071.871,2381.142,2071.039,2381.142z"/>
					<g>
						<polygon style="fill:#FFFFFF;" points="2160.621,2271.594 2085.02,2356.383 2169.853,2431.934 2101.78,2435.854 
							2016.994,2360.3 2092.548,2275.514 						"/>
					</g>
				</g>
				<g>
					<path style="fill:#FFFFFF;" d="M2522.006,1822.029c-11.962,0-22.237-9.033-23.524-21.194
						c-22.838-215.811-188.34-391.073-402.465-426.21c-12.908-2.118-21.656-14.299-19.536-27.205
						c2.118-12.906,14.324-21.661,27.205-19.536c235.108,38.576,416.825,231.012,441.902,467.965
						c1.375,13.009-8.054,24.668-21.06,26.046C2523.682,1821.985,2522.839,1822.029,2522.006,1822.029z"/>
					<g>
						<polygon style="fill:#FFFFFF;" points="2436.161,1708.797 2520.956,1784.39 2596.5,1699.551 2600.426,1767.623 
							2524.879,1852.415 2440.087,1776.87 						"/>
					</g>
				</g>
			</g>
		</g>
		<g>
			
				<linearGradient id="SVGID_00000031173910388961210040000000415274579119788734_" gradientUnits="userSpaceOnUse" x1="435.1375" y1="2563.4407" x2="153.8039" y2="3010.6892" gradientTransform="matrix(-1 0 0 1 3049.4082 0)">
				<stop  offset="0" style="stop-color:#CB236D"/>
				<stop  offset="1" style="stop-color:#4C246D"/>
			</linearGradient>
			<path style="fill:url(#SVGID_00000031173910388961210040000000415274579119788734_);" d="M3150.067,2385.166
				c0,0,106.214,58.838,115.001,158.417c8.787,99.58,0.731,512.894-212.252,614.622c-212.984,101.728-494.904,78.283-602.815,67.162
				c-107.913-11.121-167.746-84.46-181.111-134.956c-13.366-50.496-34.955-238.599,78.567-299.275
				c113.522-60.676,232.754-153.634,351.894-244.15C2818.492,2456.471,3022.672,2308.714,3150.067,2385.166z"/>
			
				<linearGradient id="SVGID_00000145033446533918775570000001794274990558199173_" gradientUnits="userSpaceOnUse" x1="-2660.5979" y1="7764.936" x2="-3451.6965" y2="8903.0977" gradientTransform="matrix(-1 0 0 1 3049.4082 0)">
				<stop  offset="0" style="stop-color:#A737D5"/>
				<stop  offset="1" style="stop-color:#EF497A"/>
			</linearGradient>
			<path style="fill:url(#SVGID_00000145033446533918775570000001794274990558199173_);" d="M2380.933,2825.465
				c0,0,28.666,1.517,32.182,60.493c0,0-66.473,59.589-156.264,73.772c-6.74,1.065,9.424-46.016,11.854-52.393
				C2280.267,2876.992,2316.682,2857.449,2380.933,2825.465z"/>
			
				<linearGradient id="SVGID_00000161608795785877243380000002706788051052198591_" gradientUnits="userSpaceOnUse" x1="-886.0861" y1="6805.6343" x2="-641.1022" y2="6111.5122" gradientTransform="matrix(-1 0 0 1 3049.4082 0)">
				<stop  offset="0" style="stop-color:#53D8FF"/>
				<stop  offset="1" style="stop-color:#3840F7"/>
			</linearGradient>
			<path style="fill:url(#SVGID_00000161608795785877243380000002706788051052198591_);" d="M2703.777,2756.119h-28.78
				c-19.919,0-38.96-8.039-52.822-22.343c-47.653-49.17-166.75-164.917-260.89-196.814c-15.314-5.189-32.041,2.177-38.903,16.819
				c-19.651,41.93-47.223,139.512,18.069,287.203c7.235,16.364,27.759,23.318,42.636,13.379c4.231-2.827,7.289-6.558,9.173-11.194
				l-7.18-172.627c0,0,158.377,138.518,185.906,165.25C2598.516,2862.525,2738.446,2846.231,2703.777,2756.119z"/>
			
				<linearGradient id="SVGID_00000121989520663627772770000007146123731345087125_" gradientUnits="userSpaceOnUse" x1="-2439.2195" y1="7918.7988" x2="-3230.3149" y2="9056.9561" gradientTransform="matrix(-1 0 0 1 3049.4082 0)">
				<stop  offset="0" style="stop-color:#A737D5"/>
				<stop  offset="1" style="stop-color:#EF497A"/>
			</linearGradient>
			<path style="fill:url(#SVGID_00000121989520663627772770000007146123731345087125_);" d="M2118.934,3186.644
				c25.35-22.213,65.741-47.139,124.05-54.286l19.72,12.062c0,0-12.575,18.548-35.547,38.14
				c-21.113,12.262-53.714,28.871-80.741,32.471C2120.14,3218.53,2116.264,3202.652,2118.934,3186.644z"/>
			
				<linearGradient id="SVGID_00000178186384182330371710000016322155447153381008_" gradientUnits="userSpaceOnUse" x1="929.2317" y1="3077.2295" x2="515.6462" y2="2739.3882" gradientTransform="matrix(-1 0 0 1 3049.4082 0)">
				<stop  offset="0" style="stop-color:#FDF53F"/>
				<stop  offset="0.6645" style="stop-color:#E57A58"/>
				<stop  offset="1" style="stop-color:#D93C65"/>
			</linearGradient>
			<path style="fill:url(#SVGID_00000178186384182330371710000016322155447153381008_);" d="M2268.704,2907.337
				c15.617,5.054,22.486,27.18,62.114,12.549c38.34-14.155,66.841-32.41,81.504-42.938c0.327,2.853,0.603,5.832,0.792,9.011
				c0,0-70.089,66.665-159.881,80.848c-6.74,1.065-12.083-5.664-9.653-12.042
				C2247.941,2943.322,2255.803,2925.967,2268.704,2907.337z"/>
			
				<linearGradient id="SVGID_00000007407393323210491180000013989606496027411368_" gradientUnits="userSpaceOnUse" x1="1041.4213" y1="3319.4644" x2="627.8375" y2="2981.6245" gradientTransform="matrix(-1 0 0 1 3049.4082 0)">
				<stop  offset="0" style="stop-color:#FDF53F"/>
				<stop  offset="0.6645" style="stop-color:#E57A58"/>
				<stop  offset="1" style="stop-color:#D93C65"/>
			</linearGradient>
			<path style="fill:url(#SVGID_00000007407393323210491180000013989606496027411368_);" d="M2099.836,3205.612
				c4.997-5.68,11.377-12.203,19.097-18.968c-2.669,16.009,1.206,31.886,27.482,28.387c27.028-3.6,59.629-20.209,80.741-32.471
				c-26.461,22.568-66.722,46.521-117.539,45.115C2098.331,3227.361,2092.378,3214.089,2099.836,3205.612z"/>
			
				<linearGradient id="SVGID_00000027574728017024916560000011054359107847637947_" gradientUnits="userSpaceOnUse" x1="2471.0608" y1="2633.0854" x2="2741.9048" y2="2633.0854">
				<stop  offset="0" style="stop-color:#F9B776"/>
				<stop  offset="1" style="stop-color:#F47960"/>
			</linearGradient>
			<path style="fill:url(#SVGID_00000027574728017024916560000011054359107847637947_);" d="M2681.89,2570.855
				c0,0-46.527,134.001-137.201,32.011l-8.633-3.832l0,0l-64.995-44.427l7.242,25.725c4.005,14.226,14.327,25.819,27.993,31.443
				l8.562,3.523c16.292,33.865,51.207,85.185,104.971,94.917c80.69,14.609,122.076-94.411,122.076-94.411L2681.89,2570.855z"/>
			
				<linearGradient id="SVGID_00000057856319701002301010000012141369315960519087_" gradientUnits="userSpaceOnUse" x1="-827.1835" y1="6826.4526" x2="-582.1995" y2="6132.3301" gradientTransform="matrix(-1 0 0 1 3049.4082 0)">
				<stop  offset="0" style="stop-color:#53D8FF"/>
				<stop  offset="1" style="stop-color:#3840F7"/>
			</linearGradient>
			<path style="fill:url(#SVGID_00000057856319701002301010000012141369315960519087_);" d="M2701.564,2799.889l-283.285,3.067
				c0,0-161.777,133.847-191.121,337.942c0,0-4.87,15.011,24.372,17.578c0,0,97.809-63.881,161.585-176.823
				c78.198-138.484,233.12-76.146,233.12-76.146c50.904-36.699,122.831-44.173,177.02-56.399L2701.564,2799.889z"/>
			
				<linearGradient id="SVGID_00000132062300583448283950000009457355038613360567_" gradientUnits="userSpaceOnUse" x1="3024.3032" y1="2546.8147" x2="2407.9917" y2="2813.8831">
				<stop  offset="0" style="stop-color:#FDF53F"/>
				<stop  offset="0.6645" style="stop-color:#E57A58"/>
				<stop  offset="1" style="stop-color:#D93C65"/>
			</linearGradient>
			<path style="fill:url(#SVGID_00000132062300583448283950000009457355038613360567_);" d="M2678.532,2797.391
				c0,0,34.679-94.269,42.132-185.866c0,0-25.37-21.804-41.228-31.211c-5.136-3.047-7.075-9.491-4.479-14.868
				c11.659-24.151,82.166-118.987,87.446-120.304c28.708-7.165,146.439-63.143,229.356,50.276
				c35.586,48.676-7.061,198.516-168.505,353.69l-33.306,6.37L2678.532,2797.391z"/>
			
				<linearGradient id="SVGID_00000093149854981839419960000004789930106616094873_" gradientUnits="userSpaceOnUse" x1="198.9239" y1="2462.7363" x2="208.7496" y2="2374.3052" gradientTransform="matrix(-1 0 0 1 3049.4082 0)">
				<stop  offset="0" style="stop-color:#F9B776"/>
				<stop  offset="1" style="stop-color:#F47960"/>
			</linearGradient>
			<path style="fill:url(#SVGID_00000093149854981839419960000004789930106616094873_);" d="M2868.369,2365.125l21.082,70.313
				c0.966,3.222-0.227,6.71-3.002,8.611c-10.15,6.951-36.678,20.776-73.069,7.341c-4.162-1.537-7.013-5.424-7.375-9.845
				l-4.997-61.254L2868.369,2365.125z"/>
			<g>
				
					<linearGradient id="SVGID_00000016757822656463929640000017049026011620097948_" gradientUnits="userSpaceOnUse" x1="251.3308" y1="2385.5981" x2="208.0226" y2="2242.7571" gradientTransform="matrix(-1 0 0 1 3049.4082 0)">
					<stop  offset="0" style="stop-color:#F9B776"/>
					<stop  offset="1" style="stop-color:#F47960"/>
				</linearGradient>
				<path style="fill:url(#SVGID_00000016757822656463929640000017049026011620097948_);" d="M2744.924,2308.182
					c0,0,10.365,72.887,38.364,95.301c27.999,22.415,82.549,5.537,100.974-49.41l-36.711-93.95L2744.924,2308.182z"/>
				
					<linearGradient id="SVGID_00000030482111977545974150000015182081386547113903_" gradientUnits="userSpaceOnUse" x1="212.2494" y1="2123.3186" x2="252.5146" y2="2352.9788" gradientTransform="matrix(-1 0 0 1 3049.4082 0)">
					<stop  offset="0" style="stop-color:#CB236D"/>
					<stop  offset="1" style="stop-color:#4C246D"/>
				</linearGradient>
				<path style="fill:url(#SVGID_00000030482111977545974150000015182081386547113903_);" d="M2851.686,2320.918
					c-2.13,0.687-4.359-0.678-4.692-2.891c-1.011-6.728-3.534-20.044-8.642-29.113c0,0,2.671-9.563-24.167,4.883
					c-26.839,14.445-67.15,35.666-90.884,23.03c-23.139-12.32-46.578-74.322,14.575-62.835c2.327,0.437,4.467-1.417,4.292-3.777
					c-0.751-10.19,0.26-33.635,24.001-41.16c22.216-7.042,34.379,2.987,39.391,9.041c1.474,1.781,4.211,1.745,5.617-0.09
					c6.655-8.689,24.728-27.182,51.336-15.457c21.915,9.658,25.323,23.156,24.962,31.568c-0.118,2.725,2.648,4.572,5.126,3.431
					c6.712-3.091,17.507-4.697,27.849,8.26c14.297,17.913-6.134,33.447-12.263,37.52c-1.003,0.667-1.628,1.773-1.635,2.979
					c-0.058,9.315-1.509,49.952-21.875,72.873c-1.764,1.985-5.023,1.403-6.051-1.045l-15.682-37.363
					c-0.728-1.735-2.663-2.625-4.454-2.048L2851.686,2320.918z"/>
				
					<linearGradient id="SVGID_00000078035715464073460950000006932449978582312626_" gradientUnits="userSpaceOnUse" x1="206.4726" y1="2399.2" x2="163.1639" y2="2256.3574" gradientTransform="matrix(-1 0 0 1 3049.4082 0)">
					<stop  offset="0" style="stop-color:#F9B776"/>
					<stop  offset="1" style="stop-color:#F47960"/>
				</linearGradient>
				<path style="fill:url(#SVGID_00000078035715464073460950000006932449978582312626_);" d="M2851.354,2328.504
					c0,0,9.576-39.003,24.122-26.34c14.546,12.663-3.792,40.535-20.456,45.848L2851.354,2328.504z"/>
				
					<linearGradient id="SVGID_00000041983296567960329830000006931912598794476985_" gradientUnits="userSpaceOnUse" x1="2848.7085" y1="2262.4978" x2="2816.3794" y2="2446.894">
					<stop  offset="0" style="stop-color:#CB236D"/>
					<stop  offset="1" style="stop-color:#4C246D"/>
				</linearGradient>
				<path style="fill:url(#SVGID_00000041983296567960329830000006931912598794476985_);" d="M2851.922,2321.992
					c0,0,12.581,38.306-11.899,59.497c-4.673,4.045-24.948-3.068-31.732,0c-10.302,4.659-19.392,11.123-35.698,11.9l18.937,35.168
					c5.195,9.646,17.023,13.571,26.912,8.856c24.499-11.681,65.212-36.933,65.212-75.756l-7.933-19.832L2851.922,2321.992z"/>
			</g>
			
				<linearGradient id="SVGID_00000029725012538408280040000010457426143294362026_" gradientUnits="userSpaceOnUse" x1="2557.5" y1="2260.8591" x2="3064.5068" y2="3152.3745">
				<stop  offset="0" style="stop-color:#FDF53F"/>
				<stop  offset="0.6645" style="stop-color:#E57A58"/>
				<stop  offset="1" style="stop-color:#D93C65"/>
			</linearGradient>
			<path style="fill:url(#SVGID_00000029725012538408280040000010457426143294362026_);" d="M2720.664,2613.755
				c-1.228,0-2.225-0.993-2.228-2.22c-0.144-42.596,16.238-98.917,16.403-99.479c0.344-1.179,1.593-1.859,2.764-1.51
				c1.179,0.344,1.858,1.584,1.51,2.764c-0.161,0.557-16.36,56.27-16.221,98.208c0.005,1.231-0.992,2.233-2.219,2.237
				C2720.668,2613.755,2720.668,2613.755,2720.664,2613.755z"/>
			
				<linearGradient id="SVGID_00000122706925343298289970000001970835299240189067_" gradientUnits="userSpaceOnUse" x1="2632.134" y1="2218.4138" x2="3139.1431" y2="3109.9326">
				<stop  offset="0" style="stop-color:#FDF53F"/>
				<stop  offset="0.6645" style="stop-color:#E57A58"/>
				<stop  offset="1" style="stop-color:#D93C65"/>
			</linearGradient>
			<path style="fill:url(#SVGID_00000122706925343298289970000001970835299240189067_);" d="M2828.159,2648.368
				c-0.305,0-0.609-0.06-0.905-0.191c-1.123-0.5-1.632-1.815-1.131-2.942c0.287-0.648,28.802-65.24,33.877-105.572
				c0.157-1.223,1.271-2.088,2.489-1.932c1.219,0.153,2.085,1.267,1.933,2.49c-5.157,40.985-33.934,106.173-34.226,106.825
				C2829.826,2647.876,2829.013,2648.368,2828.159,2648.368z"/>
			
				<linearGradient id="SVGID_00000025401962253901655730000002124856782237169550_" gradientUnits="userSpaceOnUse" x1="2682.3088" y1="2189.8806" x2="3189.3159" y2="3081.3955">
				<stop  offset="0" style="stop-color:#FDF53F"/>
				<stop  offset="0.6645" style="stop-color:#E57A58"/>
				<stop  offset="1" style="stop-color:#D93C65"/>
			</linearGradient>
			<path style="fill:url(#SVGID_00000025401962253901655730000002124856782237169550_);" d="M2909.742,2715.984l-11.015-9.361
				c-0.936-0.797-1.05-2.203-0.253-3.143c0.797-0.931,2.202-1.049,3.142-0.252l8.256,7.021
				c52.701-41.686,71.315-122.302,71.499-123.121c0.274-1.197,1.458-1.941,2.663-1.689c1.202,0.27,1.955,1.462,1.689,2.664
				c-0.192,0.839-19.468,84.442-74.554,126.784L2909.742,2715.984z"/>
			
				<linearGradient id="SVGID_00000053509616120808510420000002578632961429071798_" gradientUnits="userSpaceOnUse" x1="2432.8083" y1="2562.4111" x2="2548.502" y2="2562.4111">
				<stop  offset="0" style="stop-color:#2B3582"/>
				<stop  offset="1" style="stop-color:#150E42"/>
			</linearGradient>
			<path style="fill:url(#SVGID_00000053509616120808510420000002578632961429071798_);" d="M2438.648,2520.395l-4.56,6.245
				c-2.214,3.033-1.481,7.297,1.621,9.415l102.388,69.945c2.711,1.851,6.368,1.449,8.611-0.949l0,0
				c2.671-2.855,2.315-7.39-0.771-9.792l-97.829-76.189C2445.145,2516.761,2440.861,2517.362,2438.648,2520.395z"/>
			<path style="fill:#FFFFFF;" d="M2513.324,2727.752c-5.045,0.404-8.996,5.403-8.96,11.444
				c0.119,19.941,3.619,61.368,30.033,69.389c32.991,10.019,70.457-5.89,61.611-73.89c-0.983-7.551-6.529-13.048-12.912-12.536
				L2513.324,2727.752z"/>
			
				<linearGradient id="SVGID_00000013893412471336260750000013600551565564304560_" gradientUnits="userSpaceOnUse" x1="2704.5061" y1="2830.4236" x2="2687.5361" y2="2677.6936">
				<stop  offset="0" style="stop-color:#F9B776"/>
				<stop  offset="1" style="stop-color:#F47960"/>
			</linearGradient>
			<path style="fill:url(#SVGID_00000013893412471336260750000013600551565564304560_);" d="M2580.166,2785.634
				c0,0,171.399,0,258.469-135.268l51.147,46.766c0,0-102.38,175.406-295.132,109.671c0,0-44.51,9.188-69.597,2.228
				c-14.083-3.907-21.729-16.504-25.728-26.803c-2.299-5.92,3.471-11.776,9.476-9.709
				C2526.556,2778.631,2558.087,2787.918,2580.166,2785.634z"/>
			<path style="fill:#FFFFFF;" d="M2589.08,2743.667c0,0,10.399-28.048,28.225-7.71c17.827,20.338-11.141,35.936-28.225,38.164
				v-7.396c0,0,19.951-8.945,17.403-20.829c-2.548-11.885-17.403,2.971-17.403,2.971V2743.667z"/>
			<path style="fill:#FFFFFF;" d="M2525.236,2604.944c6.537,2.258,12.819,5.62,17.958,10.457c5.15,4.776,8.916,11.28,10.003,18.3
				c1.252,6.964-0.607,14.637-5.183,20.035c-4.442,5.484-10.257,9.143-15.502,13.146c-5.227,3.894-9.977,8.745-12.25,14.786
				c-1.09,2.996-1.369,6.272-0.442,9.313c0.902,3.043,2.92,5.686,5.45,7.728c5.073,4.21,11.566,6.252,17.452,9.532
				c2.908,1.685,5.705,3.658,7.936,6.213c2.269,2.498,3.753,5.786,3.787,9.176c0,0.062-0.049,0.113-0.112,0.114
				c-0.061,0-0.112-0.05-0.114-0.111c-0.126-3.327-1.649-6.469-3.926-8.852c-2.242-2.433-5.034-4.298-7.937-5.879
				c-5.833-3.069-12.456-4.938-17.89-9.192c-2.711-2.069-5.027-4.894-6.122-8.262c-1.128-3.366-0.905-7.072,0.206-10.373
				c2.303-6.642,7.234-11.862,12.523-16.038c5.24-4.199,10.802-7.978,14.679-13.067c3.97-4.997,5.328-11.503,4.096-17.686
				c-1.146-6.209-4.57-11.808-9.315-15.991c-4.728-4.226-10.571-7.182-16.693-9.114c-1.174-0.369-1.826-1.62-1.458-2.794
				c0.369-1.174,1.621-1.827,2.794-1.458C2525.192,2604.929,2525.22,2604.938,2525.236,2604.944z"/>
			<path style="fill:#FFFFFF;" d="M2563.005,2659.268c-3.364,6.901-9.732,10.059-12.723,15.104c-1.576,2.463-2.359,5.224-1.568,7.77
				c0.726,2.563,2.854,4.791,5.323,6.567c4.796,3.566,12.052,5.449,15.93,11.896c3.684,6.547,0.709,15.35-5.947,18.387
				c-0.552,0.253-1.203,0.009-1.455-0.543c-0.25-0.547-0.002-1.198,0.541-1.453c5.326-2.513,7.541-10.161,4.483-14.986
				c-1.507-2.481-4.039-4.278-6.784-5.8c-2.729-1.543-5.807-2.813-8.676-4.776c-2.801-1.917-5.636-4.487-6.864-8.228
				c-1.294-3.757-0.143-7.87,1.693-10.858c3.731-6.208,9.855-9.673,11.978-14.9c0.463-1.141,1.764-1.69,2.905-1.227
				c1.141,0.463,1.691,1.765,1.227,2.905C2563.049,2659.173,2563.026,2659.224,2563.005,2659.268z"/>
		</g>
		<g>
			
				<linearGradient id="SVGID_00000074404026732126536300000015682666133469662394_" gradientUnits="userSpaceOnUse" x1="1278.2715" y1="1878.5535" x2="1019.6638" y2="2354.9368">
				<stop  offset="0" style="stop-color:#F9B776"/>
				<stop  offset="1" style="stop-color:#F47960"/>
			</linearGradient>
			<path style="fill:url(#SVGID_00000074404026732126536300000015682666133469662394_);" d="M1328.052,2362.86
				c-0.475-0.182-255.613-446.991-290.091-489.039c-5.8-7.073-14.777-10.674-23.86-9.592l-71.213,8.486l-83.66,180.989
				l139.376-81.171c-13.791,95.382,165.256,237.131,226.662,288.854c6.233,5.25,6.744,14.651,1.115,20.542l-24.513,25.663
				c40.246,40.796,86.689,66.991,139.106,79.107L1328.052,2362.86z"/>
			
				<linearGradient id="SVGID_00000055700326772909304140000001656790333007462787_" gradientUnits="userSpaceOnUse" x1="-6610.1675" y1="-3186.344" x2="-6641.0464" y2="-2712.8625" gradientTransform="matrix(-0.8974 -0.4412 -0.4412 0.8974 -6001.1563 2161.1482)">
				<stop  offset="0" style="stop-color:#CB236D"/>
				<stop  offset="1" style="stop-color:#4C246D"/>
			</linearGradient>
			<path style="fill:url(#SVGID_00000055700326772909304140000001656790333007462787_);" d="M1216.047,2293.742
				c0,0-15.647,5.055-20.944,18.99c-2.534,6.667,0.198,14.219,5.996,18.373c25.763,18.457,110.745,78.049,149.96,89.72
				c3.215,0.956,6.274-1.953,5.55-5.227c-2.012-9.111-8.522-27.303-29.494-53.935l1.882,3.805c2.381,4.816-2.863,9.831-7.542,7.189
				C1295.225,2357.851,1241.799,2325.442,1216.047,2293.742z"/>
			
				<linearGradient id="SVGID_00000061445259163679910330000010352192269633901702_" gradientUnits="userSpaceOnUse" x1="16646.7305" y1="2045.8254" x2="18023.0078" y2="1184.2542" gradientTransform="matrix(1 0 0 1 -15296.4355 0)">
				<stop  offset="0" style="stop-color:#F9B776"/>
				<stop  offset="1" style="stop-color:#F47960"/>
			</linearGradient>
			<path style="fill:url(#SVGID_00000061445259163679910330000010352192269633901702_);" d="M1228.673,2472.521
				c-0.428-0.275-38.706-92.501-39.136-92.775c-35.096-213.688-120.728-396.696-145.981-444.852
				c-4.25-8.099-12.311-13.442-21.425-14.222l-71.456-6.099l-118.558,160.312l152.919-51.285
				c-32.809,90.617,113.847,265.668,163.515,328.748c5.04,6.402,3.639,15.713-3.065,20.344l-29.202,20.171
				c31.16,48.096,71.339,83.148,120.219,105.621L1228.673,2472.521z"/>
			
				<linearGradient id="SVGID_00000127739418960535345370000014470687411559415432_" gradientUnits="userSpaceOnUse" x1="-5225.0088" y1="-5149.021" x2="-5255.8857" y2="-4675.5811" gradientTransform="matrix(-0.7895 -0.6137 -0.6137 0.7895 -6018.7451 3191.1018)">
				<stop  offset="0" style="stop-color:#CB236D"/>
				<stop  offset="1" style="stop-color:#4C246D"/>
			</linearGradient>
			<path style="fill:url(#SVGID_00000127739418960535345370000014470687411559415432_);" d="M1132.974,2382.168
				c0,0-16.344,1.781-24.353,14.357c-3.832,6.016-2.684,13.964,2.153,19.206c21.495,23.289,92.659,98.845,128.701,118.212
				c2.955,1.588,6.538-0.641,6.494-3.996c-0.127-9.329-2.82-28.463-17.969-58.789l1.072,4.108c1.357,5.198-4.794,9.048-8.843,5.515
				C1197.54,2460.973,1151.778,2418.424,1132.974,2382.168z"/>
			<g>
				
					<linearGradient id="SVGID_00000164513549362241858760000005005777900144327046_" gradientUnits="userSpaceOnUse" x1="3180.4751" y1="1735.5012" x2="2417.1841" y2="2285.4495" gradientTransform="matrix(1 0 0 1 -2092.8381 0)">
					<stop  offset="0" style="stop-color:#2B3582"/>
					<stop  offset="1" style="stop-color:#150E42"/>
				</linearGradient>
				<path style="fill:url(#SVGID_00000164513549362241858760000005005777900144327046_);" d="M616.191,1880.809
					c0,0-64.642,96.147-69.947,140.005c-5.304,43.858,17.875,59.025,85.534,64.618c201.341,16.645,300.595-43.698,300.595-43.698
					c-15.08-41.858-33.302-129.756,81.728-177.505c0,0-94.977,15.214-124.258,3.851
					C860.562,1856.717,616.191,1880.809,616.191,1880.809z"/>
			</g>
			<g>
				
					<linearGradient id="SVGID_00000138531796993997135380000013454045512237583787_" gradientUnits="userSpaceOnUse" x1="984.7928" y1="1286.8306" x2="527.3931" y2="1867.7814">
					<stop  offset="0" style="stop-color:#2B3582"/>
					<stop  offset="1" style="stop-color:#150E42"/>
				</linearGradient>
				<path style="fill:url(#SVGID_00000138531796993997135380000013454045512237583787_);" d="M981.146,1368.394
					c-1.107,8.433-147.854,416.821-147.854,416.821l-224.586,35.2c-43.31,6.788-85.859-16.016-104.186-55.839h-0.001
					c-45.54-98.949-2.194-216.077,96.788-261.542l33.152-15.227c49.457-22.717,97.938-61.934,140.544-103.131
					c35.746-34.564,83.093-54.57,132.754-57.053l0,0L981.146,1368.394z"/>
				<path style="fill:#FFFFFF;" d="M543.482,1727.8c-0.186,0-0.372-0.06-0.53-0.184c-24.258-19.285-22.106-55.256-20.054-69.826
					c4.027-28.608,15.359-55.917,32.768-78.977c31.221-41.349,78.902-65.88,125.016-89.604c3.178-1.637,6.352-3.268,9.512-4.903
					c46.739-24.166,98.786-54.11,124.825-103.787c0.218-0.417,0.734-0.575,1.148-0.357c0.415,0.218,0.576,0.731,0.357,1.148
					c-26.266,50.114-78.578,80.222-125.549,104.508c-3.162,1.635-6.335,3.268-9.515,4.903
					c-45.942,23.638-93.447,48.078-124.434,89.119c-17.236,22.827-28.455,49.865-32.442,78.187
					c-2.01,14.281-4.142,49.519,19.43,68.257c0.367,0.292,0.429,0.828,0.136,1.196C543.98,1727.691,543.731,1727.8,543.482,1727.8z"
					/>
				<path style="fill:#FFFFFF;" d="M567.115,1683.693c-0.444,0-0.819-0.346-0.847-0.796c-1.907-29.985,2.391-56.001,12.779-77.324
					c18.775-38.54,58.26-63.097,90.563-80.187c6.463-3.418,13.113-6.814,19.544-10.099c29.56-15.095,60.124-30.703,83.834-54.234
					c0.334-0.334,0.872-0.331,1.203,0.003c0.332,0.334,0.329,0.872-0.003,1.203c-23.899,23.719-54.585,39.389-84.259,54.543
					c-6.427,3.281-13.071,6.674-19.524,10.089c-32.074,16.967-71.268,41.33-89.829,79.426
					c-10.255,21.056-14.498,46.784-12.609,76.47c0.03,0.47-0.326,0.874-0.794,0.904
					C567.152,1683.693,567.133,1683.693,567.115,1683.693z"/>
				
					<linearGradient id="SVGID_00000164495905630717314050000013464450025036759986_" gradientUnits="userSpaceOnUse" x1="1001.8506" y1="1586.6667" x2="933.5388" y2="1839.4205">
					<stop  offset="0" style="stop-color:#F9B776"/>
					<stop  offset="1" style="stop-color:#F47960"/>
				</linearGradient>
				<path style="fill:url(#SVGID_00000164495905630717314050000013464450025036759986_);" d="M1043.898,1682.91
					c0,0-76.76,91.927-154.055,17.273l-29.864,69.255c0,0,112.874,87.401,198.491-50.114L1043.898,1682.91z"/>
				
					<linearGradient id="SVGID_00000183962717298463336720000014239931076242700985_" gradientUnits="userSpaceOnUse" x1="903.4271" y1="1552.8563" x2="464.4756" y2="2059.8621">
					<stop  offset="0" style="stop-color:#FDF53F"/>
					<stop  offset="0.6645" style="stop-color:#E57A58"/>
					<stop  offset="1" style="stop-color:#D93C65"/>
				</linearGradient>
				<path style="fill:url(#SVGID_00000183962717298463336720000014239931076242700985_);" d="M791.011,1868.081
					c0,0,75.275-71.679,112.33-119.154c20.03-25.663,26.32-59.448,17.056-90.657c-16.916-56.995-46.982-116.026-49.723-125.213
					c-4.203-14.083-88.607-13.496-88.607-13.496s-79.47,12.354-80.099,146.998c-0.15,32.048-9.055,63.506-25.767,90.853
					c-19.183,31.393-37.847,78.518-60.01,123.399L791.011,1868.081z"/>
				
					<linearGradient id="SVGID_00000163030742233956034560000007411005828729800860_" gradientUnits="userSpaceOnUse" x1="-9501.4736" y1="880.7389" x2="-9481.8867" y2="737.4415" gradientTransform="matrix(-0.9974 -0.0717 -0.0717 0.9974 -8565.8428 105.0094)">
					<stop  offset="0" style="stop-color:#F9B776"/>
					<stop  offset="1" style="stop-color:#F47960"/>
				</linearGradient>
				<path style="fill:url(#SVGID_00000163030742233956034560000007411005828729800860_);" d="M840.076,1418.077l-56.728,105.489
					c3.745,23.027,61.743,23.676,70.702,9.926c0.912-1.399,1.433-3.017,1.779-4.652l33.935-70.484
					c1.458-6.874-17.384-30.032-23.587-33.333l-22.548-12.002C834.946,1408.398,871.176,1408.034,840.076,1418.077z"/>
				<g>
					
						<linearGradient id="SVGID_00000110470305248409217650000017398028089502456224_" gradientUnits="userSpaceOnUse" x1="-8723.3682" y1="-2649.2212" x2="-8538.9395" y2="-2977.4429" gradientTransform="matrix(-0.5458 -0.8379 -0.8379 0.5458 -6146.8584 -4320.769)">
						<stop  offset="0" style="stop-color:#F9B776"/>
						<stop  offset="1" style="stop-color:#F47960"/>
					</linearGradient>
					<path style="fill:url(#SVGID_00000110470305248409217650000017398028089502456224_);" d="M954.885,1393.319
						c0,0,6.403,35.639-21.608,80.953c-28.011,45.315-55.907,43.269-70.079,27.109c-14.172-16.16-31.147-43.075-23.423-88.271
						C847.498,1367.914,945.208,1347.87,954.885,1393.319z"/>
					
						<linearGradient id="SVGID_00000182524368804412287610000002792029014365925260_" gradientUnits="userSpaceOnUse" x1="986.2948" y1="1288.0134" x2="528.8943" y2="1868.9652">
						<stop  offset="0" style="stop-color:#2B3582"/>
						<stop  offset="1" style="stop-color:#150E42"/>
					</linearGradient>
					<path style="fill:url(#SVGID_00000182524368804412287610000002792029014365925260_);" d="M873.685,1418.021
						c0,0,45.359-59.577,80.182-7.641l-0.588,17.942c0,0,45.285-2.118,40.374-43.855c-4.911-41.739-41.881-70.252-93.135-55.992
						c-51.253,14.261-81.202,30.501-86.989,66.086c-5.789,35.585,23.267,29.771,23.267,29.771s11.099-24.553,24.501-26.23
						c13.402-1.677,8.559,17.746,8.559,17.746L873.685,1418.021z"/>
					
						<linearGradient id="SVGID_00000025412192476094196680000003002555673541037484_" gradientUnits="userSpaceOnUse" x1="-8684.1094" y1="-2627.1665" x2="-8499.6826" y2="-2955.3833" gradientTransform="matrix(-0.5458 -0.8379 -0.8379 0.5458 -6146.8584 -4320.769)">
						<stop  offset="0" style="stop-color:#F9B776"/>
						<stop  offset="1" style="stop-color:#F47960"/>
					</linearGradient>
					<path style="fill:url(#SVGID_00000025412192476094196680000003002555673541037484_);" d="M863.277,1416.432
						c0,0,23.495-30.488,2.108-36.817c-21.387-6.328-20.588,29.876-19.195,43.344L863.277,1416.432z"/>
				</g>
				
					<linearGradient id="SVGID_00000036972416144958877110000015656407674154705043_" gradientUnits="userSpaceOnUse" x1="869.7456" y1="1763.6147" x2="1166.3992" y2="1763.6147">
					<stop  offset="0" style="stop-color:#F9B776"/>
					<stop  offset="1" style="stop-color:#F47960"/>
				</linearGradient>
				<path style="fill:url(#SVGID_00000036972416144958877110000015656407674154705043_);" d="M688.222,1786.744
					c0,0,161.886-22.543,215.176-72.41c0,0,25.789-24.363,44.409-27.325c10.029-1.595,21.344-2.661,29.649-3.305
					c3.791-0.294,5.562,4.601,2.452,6.786c-5.998,4.214-13.858,8.751-20.675,9.458c-13.174,1.366,0.87,11.02-13.475,36.245
					c-14.345,25.226-34.839,15.712-34.839,15.712s-107.25,92.403-209.717,91.629
					C701.201,1843.534,675.925,1835.245,688.222,1786.744z"/>
				<g>
					
						<linearGradient id="SVGID_00000067957526200807569300000012393683250438371235_" gradientUnits="userSpaceOnUse" x1="-6974.9268" y1="1292.3324" x2="-7024.4126" y2="1344.6359" gradientTransform="matrix(-0.9865 -0.1635 -0.2088 1.2596 -5593.8945 -1140.5688)">
						<stop  offset="0" style="stop-color:#2B3582"/>
						<stop  offset="1" style="stop-color:#150E42"/>
					</linearGradient>
					<path style="fill:url(#SVGID_00000067957526200807569300000012393683250438371235_);" d="M1094.362,1619.641l-55.945-7.371
						c-6.67-1.105-13.556,2.803-17.677,10.034l-36.8,81.344c-6.928,12.154-2,28.278,9.211,30.137l44.924,5.761
						c4.298,0.713,8.716-2,11.141-6.842l49.771-99.342C1101.863,1627.622,1099.458,1620.486,1094.362,1619.641z"/>
				</g>
				
					<linearGradient id="SVGID_00000170997464983695375850000014008039033035088035_" gradientUnits="userSpaceOnUse" x1="868.9541" y1="1523.0109" x2="430.002" y2="2030.0175">
					<stop  offset="0" style="stop-color:#FDF53F"/>
					<stop  offset="0.6645" style="stop-color:#E57A58"/>
					<stop  offset="1" style="stop-color:#D93C65"/>
				</linearGradient>
				<path style="fill:url(#SVGID_00000170997464983695375850000014008039033035088035_);" d="M724.55,1565.891
					c0,0-152.458,225.817-23.349,277.642l23.349-62.991c0,0-15.434-34.882,30.035-122.429c5.993-11.54,8.867-24.474,8.34-37.467
					C761.39,1582.786,754.577,1512.489,724.55,1565.891z"/>
				
					<linearGradient id="SVGID_00000112629185386963503780000012101361386175931286_" gradientUnits="userSpaceOnUse" x1="1169.5448" y1="1390.8284" x2="621.7045" y2="1809.3644">
					<stop  offset="0" style="stop-color:#FDF53F"/>
					<stop  offset="0.6645" style="stop-color:#E57A58"/>
					<stop  offset="1" style="stop-color:#D93C65"/>
				</linearGradient>
				<path style="fill:url(#SVGID_00000112629185386963503780000012101361386175931286_);" d="M724.541,1783.269
					c-1.046,0-2.041-0.603-2.49-1.622c-0.654-1.473-15.442-37.088,30.108-124.795c0.697-1.342,2.343-1.862,3.685-1.166
					c1.34,0.697,1.86,2.346,1.166,3.685c-44.086,84.883-30.103,119.738-29.956,120.079c0.59,1.382-0.04,2.988-1.42,3.589
					C725.28,1783.194,724.907,1783.269,724.541,1783.269z"/>
				
					<linearGradient id="SVGID_00000090258347475363855820000010245860279341309826_" gradientUnits="userSpaceOnUse" x1="1077.3334" y1="1613.3895" x2="1041.3319" y2="1746.5948">
					<stop  offset="0" style="stop-color:#F9B776"/>
					<stop  offset="1" style="stop-color:#F47960"/>
				</linearGradient>
				<path style="fill:url(#SVGID_00000090258347475363855820000010245860279341309826_);" d="M1056.194,1729.362
					c0,0,37.615-54.741,33.245-61.48s-37.344-16.395-45.086-18.672C1036.612,1646.932,1022.038,1696.572,1056.194,1729.362z"/>
			</g>
		</g>
	</g>
</g>
</svg>
